<?xml version="1.0" standalone="no"?>
<!DOCTYPE svg PUBLIC "-//W3C//DTD SVG 20010904//EN"
 "http://www.w3.org/TR/2001/REC-SVG-20010904/DTD/svg10.dtd">
<svg version="1.0" xmlns="http://www.w3.org/2000/svg"
 width="860.000000pt" height="860.000000pt" viewBox="0 0 860.000000 860.000000"
 preserveAspectRatio="xMidYMid meet">
<metadata>
Created by potrace 1.14, written by Peter Selinger 2001-2017
</metadata>
<g transform="translate(0.000000,860.000000) scale(0.100000,-0.100000)"
fill="#000000" stroke="none">
<path d="M4070 8093 c0 -5 -46 -10 -102 -12 -125 -2 -128 -3 -128 -11 0 -4
-12 -6 -27 -5 -16 1 -39 -3 -53 -8 -14 -5 -54 -10 -88 -11 -35 -2 -67 -7 -70
-12 -4 -5 -20 -10 -37 -12 -67 -5 -115 -15 -115 -21 0 -4 -19 -8 -42 -9 -23
-1 -44 -6 -48 -11 -3 -6 -14 -8 -25 -7 -11 2 -26 -1 -34 -7 -7 -6 -23 -12 -35
-12 -11 -1 -32 -6 -46 -12 -14 -6 -29 -9 -33 -6 -4 3 -14 -1 -22 -7 -8 -7 -15
-9 -15 -5 0 4 -6 2 -13 -4 -8 -6 -17 -8 -20 -4 -4 3 -7 2 -7 -3 0 -5 -12 -11
-26 -12 -15 -1 -33 -7 -40 -13 -8 -6 -14 -9 -14 -5 0 4 -11 -1 -24 -10 -14 -8
-27 -15 -30 -15 -10 1 -52 -14 -106 -37 -14 -6 -42 -16 -62 -23 -20 -7 -35
-16 -32 -20 2 -5 -4 -6 -16 -4 -11 2 -22 0 -25 -6 -4 -5 -15 -9 -26 -9 -11 0
-17 -4 -14 -10 3 -5 -3 -10 -14 -10 -11 0 -23 -5 -26 -10 -4 -6 -11 -8 -16 -5
-5 4 -9 3 -9 -2 0 -4 -15 -14 -32 -22 -18 -7 -44 -21 -58 -30 -25 -15 -30 -17
-51 -20 -5 0 -7 -6 -4 -12 4 -6 1 -9 -6 -8 -18 3 -70 -21 -87 -41 -9 -10 -11
-11 -6 -1 4 7 -21 -5 -55 -28 -33 -23 -61 -38 -61 -34 0 4 -5 0 -11 -9 -5 -10
-17 -18 -24 -18 -8 0 -15 -4 -15 -9 0 -5 -10 -13 -22 -17 -13 -4 -25 -10 -28
-14 -3 -4 -26 -19 -52 -34 -27 -15 -48 -32 -48 -38 0 -5 -4 -7 -9 -3 -5 3 -19
-7 -30 -21 -12 -15 -21 -24 -21 -20 0 4 -15 -3 -32 -16 -31 -22 -44 -32 -88
-70 -11 -10 -23 -18 -26 -18 -3 0 -19 -14 -35 -31 -16 -17 -29 -28 -29 -25 0
4 -18 -11 -40 -34 -21 -22 -42 -40 -45 -40 -16 0 -235 -214 -235 -230 0 -6 -4
-8 -10 -5 -5 3 -10 3 -10 -2 0 -4 -14 -23 -30 -40 -17 -18 -30 -35 -30 -38 0
-3 -3 -6 -7 -7 -5 -1 -17 -13 -28 -27 -11 -14 -23 -27 -27 -29 -5 -2 -8 -8 -8
-13 0 -4 -16 -24 -35 -44 -20 -19 -32 -35 -28 -35 4 0 -2 -7 -13 -15 -10 -8
-15 -15 -9 -15 5 0 -1 -7 -13 -16 -12 -8 -20 -20 -17 -25 4 -5 -2 -9 -11 -9
-10 0 -15 -3 -11 -6 3 -3 2 -11 -4 -18 -5 -6 -23 -27 -39 -46 -16 -19 -30 -41
-30 -47 0 -7 -4 -13 -9 -13 -10 0 -27 -39 -23 -52 1 -4 -6 -4 -15 -1 -11 4
-14 3 -9 -5 4 -7 2 -12 -4 -12 -7 0 -10 -7 -6 -15 3 -8 2 -14 -2 -12 -4 1 -8
-2 -9 -7 -1 -5 -5 -12 -10 -15 -13 -9 -63 -89 -63 -101 0 -5 -5 -10 -11 -10
-5 0 -7 -4 -4 -10 3 -5 1 -10 -4 -10 -6 0 -11 -7 -11 -15 0 -7 -8 -19 -17 -24
-10 -6 -15 -11 -11 -11 4 0 -1 -15 -12 -32 -11 -18 -28 -50 -37 -70 -10 -21
-21 -38 -25 -38 -5 0 -8 -9 -8 -19 0 -11 -7 -26 -15 -35 -9 -8 -15 -17 -14
-18 2 -2 -9 -26 -23 -55 -15 -28 -24 -54 -21 -57 4 -3 1 -6 -5 -6 -7 0 -11 -3
-10 -7 1 -5 -8 -30 -20 -57 -12 -27 -22 -52 -22 -57 0 -5 -5 -9 -12 -9 -6 0
-8 -3 -5 -7 4 -3 2 -12 -4 -20 -6 -7 -8 -13 -4 -13 4 0 -2 -16 -14 -36 -12
-19 -15 -32 -9 -28 10 6 10 5 1 -8 -7 -8 -11 -17 -8 -20 3 -3 -1 -11 -9 -17
-8 -7 -13 -18 -10 -26 3 -7 1 -16 -5 -20 -6 -3 -11 -17 -11 -30 0 -13 -5 -27
-11 -30 -6 -4 -8 -13 -5 -21 3 -8 2 -14 -3 -14 -4 0 -14 -25 -21 -55 -7 -30
-16 -55 -20 -55 -4 0 -7 -17 -7 -37 0 -24 -4 -37 -11 -36 -7 2 -10 -6 -8 -20
2 -12 0 -31 -5 -43 -4 -11 -10 -34 -13 -50 -3 -16 -11 -49 -17 -74 -6 -25 -11
-59 -13 -75 -1 -17 -6 -37 -10 -44 -5 -7 -10 -34 -11 -60 -2 -25 -4 -46 -5
-46 -3 0 -9 -40 -12 -78 -1 -21 -5 -40 -9 -42 -3 -3 -8 -42 -9 -87 -2 -46 -4
-93 -4 -105 -1 -13 -3 -23 -6 -23 -10 0 -2 -525 8 -557 7 -22 7 -33 1 -33 -6
0 -7 -5 -3 -12 4 -6 6 -33 5 -60 -1 -27 2 -54 6 -61 4 -6 8 -23 9 -37 0 -14 4
-38 8 -55 5 -16 10 -50 12 -75 1 -25 7 -59 13 -77 5 -17 6 -34 3 -38 -4 -3 -1
-9 5 -13 7 -4 13 -27 14 -50 2 -23 6 -42 11 -42 4 0 6 -15 4 -34 -1 -19 1 -33
5 -30 10 6 16 -16 14 -53 -1 -18 2 -33 7 -33 4 0 8 -10 8 -23 0 -13 5 -28 12
-35 7 -7 9 -12 5 -12 -4 0 0 -14 8 -30 9 -17 13 -35 10 -40 -3 -6 -2 -10 2
-10 5 0 10 -12 11 -27 1 -15 6 -29 11 -32 4 -3 11 -18 15 -33 3 -15 11 -40 17
-55 6 -15 11 -30 11 -33 1 -3 14 -35 29 -72 15 -36 25 -69 21 -72 -3 -3 0 -6
6 -6 7 0 12 -7 12 -15 0 -8 6 -15 13 -15 8 0 7 -4 -3 -10 -8 -5 -10 -10 -4
-10 11 0 26 -30 28 -58 1 -7 7 -17 14 -21 8 -5 14 -12 14 -17 0 -7 8 -30 24
-64 1 -3 5 -15 9 -27 4 -13 11 -23 16 -23 5 0 9 -10 9 -22 0 -12 3 -18 7 -14
7 6 58 -93 55 -106 -1 -5 3 -8 8 -8 9 0 19 -18 31 -55 1 -5 11 -19 21 -29 10
-11 18 -26 18 -33 0 -7 5 -13 12 -13 6 0 9 -3 5 -6 -3 -3 1 -13 9 -22 8 -10
15 -21 16 -27 2 -9 16 -28 43 -59 6 -6 16 -23 24 -38 8 -16 18 -28 23 -28 4 0
8 -6 8 -14 0 -7 13 -27 30 -44 16 -18 30 -35 30 -39 0 -7 14 -25 74 -96 14
-15 22 -27 18 -27 -3 0 4 -9 16 -20 12 -12 22 -25 22 -30 0 -6 7 -10 17 -10 9
0 14 -3 10 -6 -6 -6 1 -17 46 -65 15 -16 27 -34 27 -39 0 -6 7 -10 15 -10 8 0
15 -8 15 -17 0 -9 3 -13 7 -10 7 8 39 -34 35 -46 -1 -4 2 -7 8 -7 11 0 95 -82
93 -91 -1 -3 9 -12 22 -19 14 -7 25 -17 25 -22 0 -4 6 -8 14 -8 8 0 18 -9 21
-20 3 -11 12 -20 18 -20 7 0 18 -9 25 -20 7 -11 19 -20 28 -20 8 0 12 -5 9
-10 -3 -6 1 -10 10 -10 9 0 13 -4 10 -10 -3 -5 1 -10 10 -10 8 0 18 -7 21 -15
3 -8 14 -17 25 -20 11 -4 17 -11 14 -16 -4 -5 -2 -9 4 -9 5 0 23 -12 40 -26
17 -14 31 -23 31 -21 0 3 19 -12 42 -34 23 -21 48 -39 54 -39 7 0 14 -3 16 -7
5 -12 66 -53 78 -53 6 0 8 -5 5 -10 -3 -6 0 -10 8 -10 8 0 22 -9 32 -20 10
-11 20 -18 23 -16 2 3 16 -6 30 -19 14 -13 29 -22 34 -19 4 3 8 1 8 -4 0 -4
21 -19 48 -32 26 -13 61 -34 78 -47 17 -13 39 -23 48 -23 9 0 14 -5 11 -10 -3
-6 3 -10 14 -10 11 0 23 -5 26 -11 6 -9 37 -24 60 -29 6 -1 18 -9 28 -17 9 -9
17 -12 17 -7 0 5 5 2 10 -6 8 -13 10 -13 10 -1 0 12 2 12 12 -1 11 -13 32 -26
100 -59 10 -5 25 -9 34 -9 9 0 24 -8 33 -18 9 -10 23 -18 31 -19 27 -1 60 -15
60 -24 0 -5 3 -8 8 -7 15 3 68 -15 86 -31 16 -13 18 -13 11 -1 -7 12 -6 13 7
3 8 -7 18 -10 21 -6 4 3 7 1 7 -5 0 -7 13 -12 29 -12 16 0 31 -4 33 -10 2 -5
13 -11 25 -13 12 -2 26 -6 29 -10 4 -4 20 -7 36 -7 15 0 28 -4 28 -10 0 -5 11
-10 25 -10 14 0 25 -4 25 -9 0 -4 11 -7 25 -6 14 2 28 -2 32 -8 5 -7 17 -12
28 -13 11 0 31 -3 45 -6 14 -4 52 -12 85 -19 33 -7 67 -14 75 -17 8 -2 33 -5
55 -7 22 -2 40 -4 40 -5 0 -4 43 -11 75 -13 19 -1 38 -6 41 -10 3 -4 34 -8 68
-9 34 -1 64 -6 67 -10 3 -5 13 -3 22 4 12 10 14 10 8 1 -7 -13 4 -14 132 -15
17 0 32 -4 32 -8 0 -11 423 -9 437 2 7 5 14 5 18 -2 4 -6 13 -7 23 -1 9 5 60
9 112 10 52 1 99 6 105 10 5 5 33 8 62 9 28 0 56 3 63 7 6 4 36 9 67 11 31 2
59 7 62 12 3 4 23 7 45 7 21 0 44 4 50 10 6 5 25 11 41 12 57 5 105 15 105 22
0 5 14 7 30 6 17 -1 35 4 41 11 5 7 22 10 36 8 19 -4 24 -1 20 9 -3 9 2 13 16
12 12 -1 31 3 42 8 11 6 28 10 38 8 9 -1 17 3 17 10 0 7 3 10 6 6 4 -3 22 0
41 8 19 8 39 12 44 9 5 -3 9 0 9 5 0 6 8 11 18 11 10 0 22 4 27 9 6 5 28 14
50 21 22 6 60 21 85 32 25 12 51 21 58 21 6 0 12 4 12 9 0 4 4 8 10 8 18 0 90
34 90 43 0 4 4 6 9 2 5 -3 15 0 23 7 7 7 20 14 28 16 8 2 18 8 21 14 3 5 8 9
10 7 8 -5 55 15 78 32 13 10 27 16 32 13 5 -3 9 -1 9 4 0 8 25 23 55 33 6 1
19 11 29 21 11 10 24 18 30 18 5 0 21 10 34 22 14 13 21 16 17 8 -6 -11 -3
-10 12 2 11 10 25 18 31 18 7 0 12 3 12 8 0 4 17 16 37 27 51 27 73 47 66 58
-3 6 -1 7 5 3 14 -8 55 18 45 28 -4 4 0 4 10 0 9 -3 17 -1 17 4 0 6 9 14 20
17 11 4 18 11 15 16 -4 5 1 9 9 9 8 0 27 11 42 25 15 14 31 25 36 25 5 0 6 5
2 11 -4 7 -1 10 6 7 8 -2 21 3 30 11 52 48 114 96 122 93 5 -1 7 1 5 5 -2 5 6
18 19 31 13 12 24 19 24 15 1 -4 9 2 19 14 10 12 21 19 25 16 3 -4 6 1 6 11 0
9 5 14 10 11 6 -3 10 1 10 9 0 9 3 15 8 14 4 -2 8 1 9 5 1 5 12 16 25 26 43
34 105 98 111 115 4 9 11 15 16 11 5 -3 12 4 16 15 4 11 11 18 16 15 5 -4 9
-1 9 5 0 7 20 32 45 56 25 24 43 44 40 44 -3 0 17 23 45 52 27 28 48 53 46 56
-3 2 11 19 30 38 18 19 33 37 33 40 -1 7 29 48 68 93 18 20 33 42 33 49 0 6 4
12 9 12 5 0 12 11 15 25 4 14 11 23 16 20 6 -3 10 1 10 11 0 9 10 25 22 35 11
11 18 19 14 19 -4 0 2 13 13 29 11 15 18 31 14 35 -3 3 1 6 10 6 14 0 34 35
29 53 -1 4 2 7 7 7 5 0 14 13 20 30 5 16 15 30 20 30 6 0 11 3 10 8 -2 15 14
52 23 52 5 0 7 4 4 9 -3 5 1 12 10 15 8 3 12 10 9 16 -3 6 1 17 9 26 9 9 14
20 11 25 -4 5 -2 9 3 9 9 0 25 37 23 53 -1 4 4 7 9 7 6 0 10 11 10 25 0 14 4
25 9 25 9 0 21 25 21 43 -1 4 6 15 15 23 8 9 13 20 10 25 -4 5 -2 9 2 9 9 0
46 94 46 117 0 7 7 13 14 13 8 0 12 4 9 9 -4 5 3 30 14 55 10 25 17 46 14 46
-2 0 5 18 16 40 11 21 20 48 20 60 0 11 4 20 8 20 4 0 9 12 10 26 1 15 6 32
10 38 5 6 7 21 6 34 0 12 3 22 7 22 5 0 9 9 9 19 0 11 4 22 9 25 5 3 9 24 9
47 1 23 5 45 9 48 5 3 9 15 8 26 0 11 4 23 9 26 4 4 9 25 9 47 0 22 5 39 9 36
4 -3 8 11 8 30 0 19 4 37 9 41 5 3 10 27 10 53 0 62 3 82 11 82 3 0 5 21 4 48
-1 26 2 54 7 63 4 8 9 65 10 125 1 64 6 115 13 123 7 10 7 13 0 8 -6 -3 -11 0
-11 8 0 8 4 12 8 9 4 -2 7 72 8 166 0 94 -3 168 -7 166 -4 -2 -8 66 -10 151
-1 86 -6 161 -10 167 -4 6 -8 31 -9 55 -1 24 -5 47 -10 50 -4 3 -8 29 -7 56 0
28 -5 66 -12 87 -7 20 -10 39 -7 42 3 3 2 13 -3 23 -4 10 -8 23 -9 28 -1 6 -4
24 -8 40 -4 17 -9 39 -12 50 -2 11 -9 40 -16 65 -6 25 -13 56 -15 70 -3 13
-10 28 -16 31 -6 4 -8 16 -5 28 3 12 2 21 -2 21 -4 0 -7 10 -8 22 -1 12 -6 33
-12 47 -5 14 -11 33 -14 41 -2 8 -6 20 -8 25 -1 6 -8 21 -15 34 -7 14 -11 28
-8 33 3 4 0 8 -5 8 -6 0 -11 9 -11 20 0 12 -9 40 -21 63 -11 23 -22 49 -24 57
-2 8 -11 32 -19 52 -9 21 -15 40 -14 42 2 2 -5 13 -15 23 -9 11 -14 23 -10 26
3 4 1 7 -5 7 -7 0 -12 9 -12 19 0 11 -5 23 -11 26 -6 4 -8 13 -5 21 3 8 -1 14
-10 14 -10 0 -14 6 -11 14 3 8 -1 20 -9 26 -8 7 -14 18 -14 26 0 7 -7 19 -15
28 -9 8 -16 19 -15 23 0 18 -12 43 -21 43 -5 0 -9 8 -9 18 0 10 -9 28 -20 40
-11 12 -21 24 -21 27 -3 23 -13 45 -20 45 -5 0 -9 5 -9 12 0 6 -6 19 -14 27
-8 9 -21 27 -28 41 -33 59 -82 130 -90 130 -5 0 -7 4 -3 9 3 5 -4 16 -15 24
-12 8 -20 18 -18 23 2 5 -1 9 -5 9 -4 0 -15 15 -24 32 -8 18 -20 30 -26 26 -5
-3 -7 -1 -4 4 7 10 -13 40 -60 92 -42 45 -50 55 -62 79 -7 12 -17 20 -23 16
-6 -4 -8 -3 -5 3 4 6 -7 21 -23 34 -16 13 -30 29 -30 34 0 6 -9 17 -20 25 -11
8 -20 18 -20 22 0 10 -160 168 -171 168 -5 0 -9 6 -9 13 0 6 -15 23 -32 37
-18 14 -43 37 -56 52 -14 15 -30 25 -36 21 -6 -3 -8 -3 -4 2 7 8 -14 35 -29
35 -4 1 -19 14 -33 30 -13 17 -28 30 -32 30 -5 0 -22 14 -38 30 -17 17 -30 26
-30 20 0 -5 -13 4 -28 20 -16 16 -32 27 -35 23 -4 -3 -7 1 -7 11 0 9 -4 14
-10 11 -5 -3 -10 -1 -10 6 0 7 -3 10 -6 6 -4 -3 -15 4 -25 16 -10 12 -18 18
-19 13 0 -5 -8 0 -17 10 -22 24 -99 74 -113 74 -6 0 -8 5 -5 10 3 6 -3 10 -14
10 -12 0 -21 4 -21 9 0 5 -13 14 -30 21 -16 7 -30 17 -30 22 0 5 -4 6 -10 3
-5 -3 -10 -2 -10 4 0 5 -9 13 -20 16 -11 3 -26 12 -33 18 -18 17 -89 53 -99
49 -4 -1 -8 2 -8 8 0 5 -7 10 -15 10 -8 0 -15 5 -15 10 0 6 -8 10 -18 10 -10
0 -28 9 -40 20 -12 12 -22 18 -22 15 0 -4 -30 10 -66 30 -37 19 -75 37 -84 38
-10 2 -24 8 -32 13 -28 22 -41 28 -33 14 5 -8 -5 -4 -22 8 -17 12 -41 22 -52
22 -12 0 -21 3 -21 8 0 6 -49 26 -92 36 -9 3 -27 10 -40 17 -13 8 -31 13 -41
14 -10 0 -21 5 -25 10 -4 6 -14 11 -22 12 -8 1 -33 7 -55 13 -22 6 -47 13 -55
14 -8 2 -24 7 -34 11 -10 5 -31 9 -45 10 -14 1 -25 6 -24 12 1 6 -10 9 -25 7
-14 -1 -31 1 -37 6 -5 4 -26 10 -45 11 -19 2 -38 8 -42 13 -3 5 -25 9 -47 8
-23 -1 -41 1 -41 6 0 4 -17 8 -37 10 -20 1 -39 6 -43 10 -3 4 -25 7 -50 6 -25
0 -58 5 -75 11 -16 6 -46 11 -65 10 -19 -1 -40 2 -47 7 -6 5 -60 10 -118 11
-58 0 -108 4 -110 8 -3 3 -100 7 -215 8 -167 1 -210 -1 -204 -11 5 -9 3 -9 -9
1 -9 7 -17 9 -17 4z"/>
</g>
</svg>
